<?xml version="1.0" encoding="UTF-8"?>
<svg width="21px" height="18px" viewBox="0 0 21 18" version="1.1" xmlns="http://www.w3.org/2000/svg" xmlns:xlink="http://www.w3.org/1999/xlink">
    <!-- Generator: Sketch 50 (54983) - http://www.bohemiancoding.com/sketch -->
    <title>wellness-icon</title>
    <desc>Created with Sketch.</desc>
    <defs></defs>
    <g id="Page-1" stroke="none" stroke-width="1" fill="none" fill-rule="evenodd" stroke-linecap="round" stroke-linejoin="round">
        <g id="Desktop-HD" transform="translate(-960.000000, -1936.000000)" stroke="#14CBC4">
            <g id="wellness-icon" transform="translate(960.000000, 1936.000000)">
                <path d="M15.1282645,0.605630769 C13.142071,0.606323077 11.4139742,1.72647692 10.5089419,3.38109231 C9.60187742,1.72716923 7.87242581,0.6084 5.88555484,0.609092308 C2.9618129,0.610476923 0.591522581,3.03424615 0.592877419,6.02293846 C0.594909677,12.2218615 10.5136839,17.3165538 10.5136839,17.3165538 C10.5136839,17.3165538 20.4283935,12.0834 20.4256839,6.01532308 C20.424329,3.02663077 18.0526839,0.604246154 15.1282645,0.605630769 Z" id="Stroke-1"></path>
                <polyline id="Stroke-3" points="1.5090871 8.96607692 4.22689355 8.96469231 7.08492581 8.96330769 8.39437742 6.57346154 10.779571 11.6861538 12.8030226 7.72892308 13.8157645 8.96053846 19.2357968 8.95846154"></polyline>
            </g>
        </g>
    </g>
</svg>