<?xml version="1.0" encoding="UTF-8"?>
<svg width="18px" height="18px" viewBox="0 0 18 18" version="1.1" xmlns="http://www.w3.org/2000/svg" xmlns:xlink="http://www.w3.org/1999/xlink">
    <!-- Generator: Sketch 50 (54983) - http://www.bohemiancoding.com/sketch -->
    <title>and-more-icon</title>
    <desc>Created with Sketch.</desc>
    <defs></defs>
    <g id="Page-1" stroke="none" stroke-width="1" fill="none" fill-rule="evenodd" stroke-linecap="round" stroke-linejoin="round">
        <g id="Desktop-HD" transform="translate(-960.000000, -2166.000000)" stroke="#14CBC4">
            <g id="and-more-icon" transform="translate(960.000000, 2166.000000)">
                <path d="M13.7472923,8.74723846 L9.19052308,8.74723846 L9.19052308,4.19046923 C9.19052308,4.06793077 9.09083077,3.96893077 8.96898462,3.96893077 C8.84644615,3.96893077 8.74675385,4.06793077 8.74675385,4.19046923 L8.74675385,8.74723846 L4.18998462,8.74723846 C4.06813846,8.74723846 3.96844615,8.84693077 3.96844615,8.96877692 C3.96844615,9.09131538 4.06813846,9.19031538 4.18998462,9.19031538 L8.74675385,9.19031538 L8.74675385,13.7470846 C8.74675385,13.8696231 8.84644615,13.9686231 8.96898462,13.9686231 C9.09083077,13.9686231 9.19052308,13.8696231 9.19052308,13.7470846 L9.19052308,9.19031538 L13.7472923,9.19031538 C13.8698308,9.19031538 13.9688308,9.09131538 13.9688308,8.96877692 C13.9688308,8.84693077 13.8698308,8.74723846 13.7472923,8.74723846 Z" id="Stroke-1"></path>
                <path d="M0.605630769,8.96898462 C0.605630769,4.34990769 4.34963077,0.605907692 8.96870769,0.605907692 C13.5877846,0.605907692 17.3317846,4.34990769 17.3317846,8.96898462 C17.3317846,13.5873692 13.5877846,17.3313692 8.96870769,17.3313692 C4.34963077,17.3313692 0.605630769,13.5873692 0.605630769,8.96898462 Z" id="Stroke-3"></path>
            </g>
        </g>
    </g>
</svg>