<?xml version="1.0" encoding="UTF-8"?>
<svg width="17px" height="19px" viewBox="0 0 17 19" version="1.1" xmlns="http://www.w3.org/2000/svg" xmlns:xlink="http://www.w3.org/1999/xlink">
    <!-- Generator: Sketch 50 (54983) - http://www.bohemiancoding.com/sketch -->
    <title>healthcare-icon</title>
    <desc>Created with Sketch.</desc>
    <defs></defs>
    <g id="Page-1" stroke="none" stroke-width="1" fill="none" fill-rule="evenodd" stroke-linecap="round" stroke-linejoin="round">
        <g id="Desktop-HD" transform="translate(-206.000000, -1711.000000)" stroke="#14CBC4">
            <g id="healthcare-icon" transform="translate(206.000000, 1711.000000)">
                <path d="M12.0863238,2.453625 C10.5533714,2.453625 9.18727619,1.751625 8.2920381,0.656625 L8.27984762,0.656625 C7.38384762,1.751625 6.01775238,2.453625 4.48632381,2.453625 C3.14613333,2.453625 1.93013333,1.915875 0.666895238,1.047375 L0.666895238,12.157125 C0.666895238,12.157125 1.77241905,16.108875 8.28594286,17.906625 C14.8009905,16.108875 15.9049905,12.157125 15.9049905,12.157125 L15.9049905,1.047375 C14.6417524,1.915875 13.4272762,2.453625 12.0863238,2.453625 Z" id="Stroke-1"></path>
                <polygon id="Stroke-3" points="12.0952381 7.422375 9.80952381 7.422375 9.80952381 5.172375 6.76190476 5.172375 6.76190476 7.422375 4.47619048 7.422375 4.47619048 10.422375 6.76190476 10.422375 6.76190476 12.672375 9.80952381 12.672375 9.80952381 10.422375 12.0952381 10.422375"></polygon>
            </g>
        </g>
    </g>
</svg>