<?xml version="1.0" encoding="UTF-8"?>
<svg width="24px" height="19px" viewBox="0 0 24 19" version="1.1" xmlns="http://www.w3.org/2000/svg" xmlns:xlink="http://www.w3.org/1999/xlink">
    <!-- Generator: Sketch 50 (54983) - http://www.bohemiancoding.com/sketch -->
    <title>piggy-bank-icon</title>
    <desc>Created with Sketch.</desc>
    <defs></defs>
    <g id="Page-1" stroke="none" stroke-width="1" fill="none" fill-rule="evenodd">
        <g id="Desktop-HD" transform="translate(-595.000000, -1935.000000)">
            <g id="piggy-bank-icon" transform="translate(596.000000, 1936.000000)">
                <path d="M20.7756346,6.80769 C20.7871346,6.75459 20.8225192,6.59259 21.1816731,6.49359 C21.2648269,6.47109 21.3417885,6.45939 21.4116731,6.45939 C21.5762115,6.45939 21.7009423,6.52149 21.7602115,6.63849 C21.8610577,6.83289 21.7796731,7.18659 21.4311346,7.48449 C21.3364808,7.56549 21.2365192,7.63389 21.1347885,7.69149 C20.8888654,7.35669 20.7269808,7.03179 20.7756346,6.80769 M17.3105962,13.50369 C17.1319038,13.65939 16.96825,13.94559 16.9310962,14.17059 L16.5321346,16.59789 C16.5170962,16.69149 16.4206731,16.77429 16.3269038,16.77429 L14.1560577,16.77429 C14.0737885,16.77429 14.0074423,16.70679 14.0074423,16.62309 L14.0074423,15.87789 C14.0074423,15.61599 13.81725,15.41799 13.5660192,15.41799 C13.5500962,15.41799 13.5341731,15.41889 13.5191346,15.41979 C13.4864038,15.42069 13.4527885,15.42519 13.4209423,15.43329 C13.0573654,15.51609 12.6849423,15.57909 12.3116346,15.62139 C11.1660577,15.74739 10.0027885,15.67989 8.90586538,15.42879 C8.83509615,15.41349 8.76344231,15.41259 8.69621154,15.42609 C8.48036538,15.46209 8.33086538,15.64749 8.33086538,15.87969 L8.33086538,16.62399 C8.33086538,16.70679 8.26451923,16.77429 8.18401923,16.77429 L5.99194231,16.77429 C5.89817308,16.77429 5.80175,16.69059 5.78671154,16.59699 L5.38598077,14.16249 C5.34882692,13.93749 5.18517308,13.65039 5.00648077,13.49559 C4.17582692,12.77649 3.54951923,11.94129 3.14259615,11.01249 C3.04086538,10.77849 2.78432692,10.56879 2.54725,10.52469 L0.99475,10.23489 C0.900980769,10.21689 0.817826923,10.11609 0.817826923,10.01799 L0.817826923,7.19559 C0.817826923,7.09839 0.900096154,6.99849 0.993865385,6.98049 L2.54194231,6.69069 C2.77901923,6.64659 3.03467308,6.43779 3.13728846,6.20379 C3.41505769,5.56929 3.80251923,4.97079 4.28728846,4.42539 C4.37132692,4.33089 4.43855769,4.19949 4.47571154,4.05999 C4.52082692,3.91509 4.53409615,3.76839 4.51109615,3.64599 L4.00421154,0.87849 L6.56428846,2.26269 C6.67751923,2.32479 6.82701923,2.35809 6.98536538,2.35809 C7.11186538,2.35809 7.22951923,2.33649 7.32771154,2.29509 C8.52105769,1.79739 9.80905769,1.54449 11.1527885,1.54449 C15.6890962,1.54449 19.6680962,4.68729 19.6680962,8.26839 C19.6680962,10.29879 18.80825,12.20679 17.3105962,13.50369 M22.1565192,8.77149 C21.9167885,8.56899 21.6275192,8.28819 21.3754038,7.99299 C21.47625,7.93089 21.5770962,7.85979 21.6735192,7.77699 C22.1989808,7.32789 22.2644423,6.79149 22.0937115,6.46029 C21.9601346,6.20109 21.6248654,5.97609 21.0843654,6.12369 C20.6986731,6.22989 20.4713269,6.43239 20.4085192,6.72579 C20.3350962,7.06599 20.5208654,7.47369 20.7853654,7.85349 C20.4651346,7.96959 20.1740962,8.00469 20.0369808,8.01279 C19.8556346,4.33449 15.7819808,1.16199 11.1527885,1.16199 C9.75951923,1.16199 8.42375,1.42479 7.18528846,1.94229 C7.06940385,1.98999 6.84648077,1.98189 6.74121154,1.92429 L4.11567308,0.50589 C3.89894231,0.38799 3.68221154,0.46449 3.61851923,0.65979 C3.61498077,0.67329 3.61144231,0.68589 3.61055769,0.70029 C3.60525,0.74979 3.60701923,0.79659 3.61586538,0.84609 L4.14132692,3.71619 C4.15282692,3.77739 4.14398077,3.86109 4.11567308,3.95199 C4.09267308,4.03839 4.05286538,4.11939 4.00951923,4.16799 C3.49644231,4.74399 3.08775,5.37669 2.79405769,6.04809 C2.74186538,6.16599 2.58971154,6.29289 2.47382692,6.31449 L0.926634615,6.60429 C0.655057692,6.65469 0.44275,6.91479 0.44275,7.19559 L0.44275,10.01799 C0.44275,10.29969 0.655057692,10.55979 0.927519231,10.61109 L2.47825,10.90089 C2.59413462,10.92249 2.74717308,11.05029 2.79936538,11.16819 C3.22928846,12.15009 3.88921154,13.03029 4.76232692,13.78719 C4.87378846,13.88349 4.99144231,14.08869 5.01444231,14.22549 L5.41517308,16.65999 C5.46117308,16.93899 5.71505769,17.15679 5.99194231,17.15679 L8.18401923,17.15679 C8.47240385,17.15679 8.70594231,16.91739 8.70594231,16.62399 L8.70594231,15.87969 C8.70594231,15.81219 8.74309615,15.80589 8.75813462,15.80409 L8.77140385,15.80139 C8.78644231,15.79779 8.80501923,15.79779 8.82271154,15.80229 C9.96032692,16.06239 11.1642885,16.13169 12.3532115,16.00209 C12.7397885,15.95799 13.12725,15.89229 13.5023269,15.80589 C13.51825,15.80229 13.5341731,15.80319 13.5509808,15.80139 C13.5881346,15.79779 13.6314808,15.79869 13.6314808,15.87789 L13.6314808,16.62309 C13.6314808,16.91739 13.8659038,17.15679 14.1560577,17.15679 L16.3269038,17.15679 C16.6037885,17.15679 16.8567885,16.93899 16.9027885,16.66089 L17.3026346,14.23359 C17.3256346,14.09769 17.4424038,13.89249 17.5538654,13.79619 C19.1045962,12.45159 20.0060192,10.48959 20.0405192,8.39529 C20.2121346,8.38539 20.6049038,8.34579 21.0268654,8.17029 C21.4054808,8.62659 21.8274423,8.99199 21.9150192,9.06579 C21.9504038,9.09549 21.9928654,9.10989 22.0353269,9.10989 C22.0892885,9.10989 22.14325,9.08649 22.1804038,9.04059 C22.24675,8.96049 22.23525,8.83899 22.1565192,8.77149" id="Fill-1" fill="#14CBC4"></path>
                <path d="M20.7756346,6.80769 C20.7871346,6.75459 20.8225192,6.59259 21.1816731,6.49359 C21.2648269,6.47109 21.3417885,6.45939 21.4116731,6.45939 C21.5762115,6.45939 21.7009423,6.52149 21.7602115,6.63849 C21.8610577,6.83289 21.7796731,7.18659 21.4311346,7.48449 C21.3364808,7.56549 21.2365192,7.63389 21.1347885,7.69149 C20.8888654,7.35669 20.7269808,7.03179 20.7756346,6.80769 Z M17.3105962,13.50369 C17.1319038,13.65939 16.96825,13.94559 16.9310962,14.17059 L16.5321346,16.59789 C16.5170962,16.69149 16.4206731,16.77429 16.3269038,16.77429 L14.1560577,16.77429 C14.0737885,16.77429 14.0074423,16.70679 14.0074423,16.62309 L14.0074423,15.87789 C14.0074423,15.61599 13.81725,15.41799 13.5660192,15.41799 C13.5500962,15.41799 13.5341731,15.41889 13.5191346,15.41979 C13.4864038,15.42069 13.4527885,15.42519 13.4209423,15.43329 C13.0573654,15.51609 12.6849423,15.57909 12.3116346,15.62139 C11.1660577,15.74739 10.0027885,15.67989 8.90586538,15.42879 C8.83509615,15.41349 8.76344231,15.41259 8.69621154,15.42609 C8.48036538,15.46209 8.33086538,15.64749 8.33086538,15.87969 L8.33086538,16.62399 C8.33086538,16.70679 8.26451923,16.77429 8.18401923,16.77429 L5.99194231,16.77429 C5.89817308,16.77429 5.80175,16.69059 5.78671154,16.59699 L5.38598077,14.16249 C5.34882692,13.93749 5.18517308,13.65039 5.00648077,13.49559 C4.17582692,12.77649 3.54951923,11.94129 3.14259615,11.01249 C3.04086538,10.77849 2.78432692,10.56879 2.54725,10.52469 L0.99475,10.23489 C0.900980769,10.21689 0.817826923,10.11609 0.817826923,10.01799 L0.817826923,7.19559 C0.817826923,7.09839 0.900096154,6.99849 0.993865385,6.98049 L2.54194231,6.69069 C2.77901923,6.64659 3.03467308,6.43779 3.13728846,6.20379 C3.41505769,5.56929 3.80251923,4.97079 4.28728846,4.42539 C4.37132692,4.33089 4.43855769,4.19949 4.47571154,4.05999 C4.52082692,3.91509 4.53409615,3.76839 4.51109615,3.64599 L4.00421154,0.87849 L6.56428846,2.26269 C6.67751923,2.32479 6.82701923,2.35809 6.98536538,2.35809 C7.11186538,2.35809 7.22951923,2.33649 7.32771154,2.29509 C8.52105769,1.79739 9.80905769,1.54449 11.1527885,1.54449 C15.6890962,1.54449 19.6680962,4.68729 19.6680962,8.26839 C19.6680962,10.29879 18.80825,12.20679 17.3105962,13.50369 Z M22.1565192,8.77149 C21.9167885,8.56899 21.6275192,8.28819 21.3754038,7.99299 C21.47625,7.93089 21.5770962,7.85979 21.6735192,7.77699 C22.1989808,7.32789 22.2644423,6.79149 22.0937115,6.46029 C21.9601346,6.20109 21.6248654,5.97609 21.0843654,6.12369 C20.6986731,6.22989 20.4713269,6.43239 20.4085192,6.72579 C20.3350962,7.06599 20.5208654,7.47369 20.7853654,7.85349 C20.4651346,7.96959 20.1740962,8.00469 20.0369808,8.01279 C19.8556346,4.33449 15.7819808,1.16199 11.1527885,1.16199 C9.75951923,1.16199 8.42375,1.42479 7.18528846,1.94229 C7.06940385,1.98999 6.84648077,1.98189 6.74121154,1.92429 L4.11567308,0.50589 C3.89894231,0.38799 3.68221154,0.46449 3.61851923,0.65979 C3.61498077,0.67329 3.61144231,0.68589 3.61055769,0.70029 C3.60525,0.74979 3.60701923,0.79659 3.61586538,0.84609 L4.14132692,3.71619 C4.15282692,3.77739 4.14398077,3.86109 4.11567308,3.95199 C4.09267308,4.03839 4.05286538,4.11939 4.00951923,4.16799 C3.49644231,4.74399 3.08775,5.37669 2.79405769,6.04809 C2.74186538,6.16599 2.58971154,6.29289 2.47382692,6.31449 L0.926634615,6.60429 C0.655057692,6.65469 0.44275,6.91479 0.44275,7.19559 L0.44275,10.01799 C0.44275,10.29969 0.655057692,10.55979 0.927519231,10.61109 L2.47825,10.90089 C2.59413462,10.92249 2.74717308,11.05029 2.79936538,11.16819 C3.22928846,12.15009 3.88921154,13.03029 4.76232692,13.78719 C4.87378846,13.88349 4.99144231,14.08869 5.01444231,14.22549 L5.41517308,16.65999 C5.46117308,16.93899 5.71505769,17.15679 5.99194231,17.15679 L8.18401923,17.15679 C8.47240385,17.15679 8.70594231,16.91739 8.70594231,16.62399 L8.70594231,15.87969 C8.70594231,15.81219 8.74309615,15.80589 8.75813462,15.80409 L8.77140385,15.80139 C8.78644231,15.79779 8.80501923,15.79779 8.82271154,15.80229 C9.96032692,16.06239 11.1642885,16.13169 12.3532115,16.00209 C12.7397885,15.95799 13.12725,15.89229 13.5023269,15.80589 C13.51825,15.80229 13.5341731,15.80319 13.5509808,15.80139 C13.5881346,15.79779 13.6314808,15.79869 13.6314808,15.87789 L13.6314808,16.62309 C13.6314808,16.91739 13.8659038,17.15679 14.1560577,17.15679 L16.3269038,17.15679 C16.6037885,17.15679 16.8567885,16.93899 16.9027885,16.66089 L17.3026346,14.23359 C17.3256346,14.09769 17.4424038,13.89249 17.5538654,13.79619 C19.1045962,12.45159 20.0060192,10.48959 20.0405192,8.39529 C20.2121346,8.38539 20.6049038,8.34579 21.0268654,8.17029 C21.4054808,8.62659 21.8274423,8.99199 21.9150192,9.06579 C21.9504038,9.09549 21.9928654,9.10989 22.0353269,9.10989 C22.0892885,9.10989 22.14325,9.08649 22.1804038,9.04059 C22.24675,8.96049 22.23525,8.83899 22.1565192,8.77149 Z" id="Stroke-3" stroke="#14CBC4"></path>
                <path d="M13.6710231,4.16124 C13.6329846,4.13244 12.7306769,3.45294 11.1790615,3.45294 C9.62744615,3.45294 8.72425385,4.13244 8.68621538,4.16124 C8.60306154,4.22424 8.58713846,4.34484 8.64906154,4.42944 C8.71275385,4.51404 8.82952308,4.53024 8.91267692,4.46634 C8.92152308,4.46004 9.75129231,3.83544 11.1790615,3.83544 C12.5971,3.83544 13.4357154,4.46004 13.4436769,4.46634 C13.4781769,4.49244 13.5179846,4.50504 13.5569077,4.50504 C13.6144077,4.50504 13.6710231,4.47894 13.7072923,4.42944 C13.7701,4.34484 13.7541769,4.22424 13.6710231,4.16124" id="Fill-5" fill="#14CBC4"></path>
                <path d="M13.6710231,4.16124 C13.6329846,4.13244 12.7306769,3.45294 11.1790615,3.45294 C9.62744615,3.45294 8.72425385,4.13244 8.68621538,4.16124 C8.60306154,4.22424 8.58713846,4.34484 8.64906154,4.42944 C8.71275385,4.51404 8.82952308,4.53024 8.91267692,4.46634 C8.92152308,4.46004 9.75129231,3.83544 11.1790615,3.83544 C12.5971,3.83544 13.4357154,4.46004 13.4436769,4.46634 C13.4781769,4.49244 13.5179846,4.50504 13.5569077,4.50504 C13.6144077,4.50504 13.6710231,4.47894 13.7072923,4.42944 C13.7701,4.34484 13.7541769,4.22424 13.6710231,4.16124 Z" id="Stroke-7" stroke="#14CBC4"></path>
                <path d="M6.58118462,7.13376 L6.5803,7.13376 C6.53783846,7.10136 6.14595385,6.81606 5.47895385,6.81606 C4.81283846,6.81606 4.42006923,7.10136 4.37760769,7.13376 C4.33249231,7.16796 4.30418462,7.21836 4.29622308,7.27416 C4.28826154,7.33176 4.30241538,7.38666 4.33691538,7.43256 C4.37760769,7.48836 4.44041538,7.51716 4.50410769,7.51716 C4.54745385,7.51716 4.59168462,7.50366 4.62883846,7.47486 C4.63237692,7.47306 4.94641538,7.24266 5.47895385,7.24266 C6.00795385,7.24266 6.32641538,7.47306 6.32818462,7.47396 C6.41664615,7.54236 6.55553077,7.52346 6.62187692,7.43256 C6.65549231,7.38666 6.67053077,7.33176 6.66256923,7.27416 C6.65460769,7.21836 6.62541538,7.16796 6.58118462,7.13376" id="Fill-9" fill="#14CBC4"></path>
                <path d="M6.58118462,7.13376 L6.5803,7.13376 C6.53783846,7.10136 6.14595385,6.81606 5.47895385,6.81606 C4.81283846,6.81606 4.42006923,7.10136 4.37760769,7.13376 C4.33249231,7.16796 4.30418462,7.21836 4.29622308,7.27416 C4.28826154,7.33176 4.30241538,7.38666 4.33691538,7.43256 C4.37760769,7.48836 4.44041538,7.51716 4.50410769,7.51716 C4.54745385,7.51716 4.59168462,7.50366 4.62883846,7.47486 C4.63237692,7.47306 4.94641538,7.24266 5.47895385,7.24266 C6.00795385,7.24266 6.32641538,7.47306 6.32818462,7.47396 C6.41664615,7.54236 6.55553077,7.52346 6.62187692,7.43256 C6.65549231,7.38666 6.67053077,7.33176 6.66256923,7.27416 C6.65460769,7.21836 6.62541538,7.16796 6.58118462,7.13376 Z" id="Stroke-11" stroke="#14CBC4"></path>
            </g>
        </g>
    </g>
</svg>