<?xml version="1.0" encoding="UTF-8"?>
<svg width="19px" height="19px" viewBox="0 0 19 19" version="1.1" xmlns="http://www.w3.org/2000/svg" xmlns:xlink="http://www.w3.org/1999/xlink">
    <!-- Generator: Sketch 50 (54983) - http://www.bohemiancoding.com/sketch -->
    <title>time-off-icon</title>
    <desc>Created with Sketch.</desc>
    <defs></defs>
    <g id="Page-1" stroke="none" stroke-width="1" fill="none" fill-rule="evenodd" stroke-linecap="round" stroke-linejoin="round">
        <g id="Desktop-HD" transform="translate(-960.000000, -1711.000000)" stroke="#14CBC4">
            <g id="time-off-icon" transform="translate(960.000000, 1711.000000)">
                <path d="M5.53125,8.90625 L5.53125,4.40625 C5.53125,2.33475 7.20975,0.65625 9.28125,0.65625 C11.352,0.65625 13.03125,2.33475 13.03125,4.40625 L13.03125,8.90625" id="Stroke-1"></path>
                <path d="M17.90625,10.78125 C17.90625,8.91675 16.395,7.40625 14.53125,7.40625 L4.03125,7.40625 C2.1675,7.40625 0.65625,8.91675 0.65625,10.78125 L0.65625,15.65625 C0.65625,16.89825 1.6635,17.90625 2.90625,17.90625 L15.65625,17.90625 C16.899,17.90625 17.90625,16.89825 17.90625,15.65625 L17.90625,10.78125 Z" id="Stroke-3"></path>
                <path d="M4.40625,17.90625 C4.40625,15.83475 2.727,14.15625 0.65625,14.15625" id="Stroke-5"></path>
                <path d="M14.15625,17.90625 C14.15625,15.83475 15.83475,14.15625 17.90625,14.15625" id="Stroke-7"></path>
                <path d="M16.40625,11.15625 L2.15625,11.15625" id="Stroke-9"></path>
                <path d="M3.65625,12.28125 L3.65625,13.03125" id="Stroke-11"></path>
            </g>
        </g>
    </g>
</svg>