<?xml version="1.0" encoding="UTF-8"?>
<svg width="19px" height="19px" viewBox="0 0 19 19" version="1.1" xmlns="http://www.w3.org/2000/svg" xmlns:xlink="http://www.w3.org/1999/xlink">
    <!-- Generator: Sketch 50 (54983) - http://www.bohemiancoding.com/sketch -->
    <title>family-friendly-icon</title>
    <desc>Created with Sketch.</desc>
    <defs></defs>
    <g id="Page-1" stroke="none" stroke-width="1" fill="none" fill-rule="evenodd" stroke-linecap="round" stroke-linejoin="round">
        <g id="Desktop-HD" transform="translate(-595.000000, -1711.000000)" stroke="#14CBC4">
            <g id="family-friendly-icon" transform="translate(595.000000, 1711.000000)">
                <path d="M3.53695556,8.78919231 L18.4808074,8.77742308 C18.4808074,8.77742308 18.049437,15.2304231 10.8660296,15.2359615 C3.68332593,15.2408077 3.53695556,8.78919231 3.53695556,8.78919231 Z" id="Stroke-1"></path>
                <path d="M8.36942963,16.7399308 C8.36942963,17.3013923 7.9070963,17.7576231 7.33568889,17.7583154 C6.76498519,17.7583154 6.30194815,17.3027769 6.30124444,16.7413154 C6.30054074,16.1791615 6.76357778,15.7229308 7.33428148,15.7229308 C7.90568889,15.7222385 8.36872593,16.1777769 8.36942963,16.7399308 Z" id="Stroke-3"></path>
                <path d="M15.1653074,16.7345308 C15.1660111,17.2966846 14.7036778,17.7522231 14.1322704,17.7529154 C13.5615667,17.7536077 13.0978259,17.2973769 13.0971222,16.7359154 C13.0971222,16.1737615 13.5594556,15.7182231 14.1301593,15.7175308 C14.7022704,15.7175308 15.1646037,16.1723769 15.1653074,16.7345308 Z" id="Stroke-5"></path>
                <path d="M8.35641111,0.605907692 L8.36344815,8.78483077 L3.53674443,8.78898462 C3.53674443,8.78898462 3.53252222,2.35329231 8.35641111,0.605907692 Z" id="Stroke-7"></path>
                <path d="M10.2283333,1.83233077 C10.2297407,3.08471538 8.35859259,3.05979231 8.35859259,3.05979231 L8.35648148,0.606253846 C8.35648148,0.606253846 10.2276296,0.578561538 10.2283333,1.83233077 Z" id="Stroke-9"></path>
                <path d="M10.2304444,4.28649231 C10.2318519,5.53956923 8.3607037,5.51464615 8.3607037,5.51464615 L8.35859259,3.06041538 C8.35859259,3.06041538 10.2297407,3.03341538 10.2304444,4.28649231 Z" id="Stroke-11"></path>
                <path d="M10.2324852,6.74134615 C10.2331889,7.99442308 8.36274444,7.9695 8.36274444,7.9695 L8.36063333,5.51526923 C8.36063333,5.51526923 10.2317815,5.48826923 10.2324852,6.74134615 Z" id="Stroke-13"></path>
                <path d="M3.53695556,8.78919231 C3.53695556,8.78919231 3.28432593,0.415730769 1.85580741,0.610961538 C0.427992593,0.8055 0.62502963,0.611653846 0.62502963,0.611653846" id="Stroke-15"></path>
            </g>
        </g>
    </g>
</svg>