<?xml version="1.0" encoding="UTF-8"?>
<svg width="20px" height="17px" viewBox="0 0 20 17" version="1.1" xmlns="http://www.w3.org/2000/svg" xmlns:xlink="http://www.w3.org/1999/xlink">
    <!-- Generator: Sketch 50 (54983) - http://www.bohemiancoding.com/sketch -->
    <title>events-icon</title>
    <desc>Created with Sketch.</desc>
    <defs>
        <polygon id="path-1" points="0.285 0.09375 6.365 0.09375 6.365 0.75 0.285 0.75"></polygon>
    </defs>
    <g id="Page-1" stroke="none" stroke-width="1" fill="none" fill-rule="evenodd">
        <g id="Desktop-HD" transform="translate(-203.000000, -2166.000000)">
            <g id="events-icon" transform="translate(203.000000, 2166.000000)">
                <polygon id="Stroke-1" stroke="#14CBC4" stroke-linecap="round" stroke-linejoin="round" points="4.085 3.65625 10.165 9.65625 16.245 3.65625"></polygon>
                <g id="Group-11" transform="translate(0.000000, 0.562500)">
                    <path d="M10.165,9.09375 L10.165,15.84375" id="Stroke-2" stroke="#14CBC4" stroke-linecap="round" stroke-linejoin="round"></path>
                    <g id="Group-6" transform="translate(6.840000, 15.750000)">
                        <mask id="mask-2" fill="white">
                            <use xlink:href="#path-1"></use>
                        </mask>
                        <g id="Clip-5"></g>
                        <path d="M0.285,0.09375 L6.365,0.09375" id="Stroke-4" stroke="#14CBC4" stroke-linecap="round" stroke-linejoin="round" mask="url(#mask-2)"></path>
                    </g>
                    <polyline id="Stroke-7" stroke="#14CBC4" stroke-linecap="round" stroke-linejoin="round" points="6.365 3.09375 3.705 0.09375 0.665 0.09375"></polyline>
                    <path d="M14.093364,3.09225 C14.009764,2.85825 13.964924,2.60625 13.964924,2.34375 C13.964924,1.10025 14.985604,0.09375 16.244924,0.09375 C17.502724,0.09375 18.524924,1.10025 18.524924,2.34375 C18.524924,3.58725 17.502724,4.59375 16.244924,4.59375 C15.808684,4.59375 15.402084,4.47375 15.056284,4.26525" id="Stroke-9" stroke="#14CBC4" stroke-linecap="round" stroke-linejoin="round"></path>
                </g>
            </g>
        </g>
    </g>
</svg>